<?xml version="1.0" standalone="no"?>
<!DOCTYPE svg PUBLIC "-//W3C//DTD SVG 20010904//EN"
 "http://www.w3.org/TR/2001/REC-SVG-20010904/DTD/svg10.dtd">
<svg version="1.0" xmlns="http://www.w3.org/2000/svg"
 width="576.000000pt" height="576.000000pt" viewBox="0 0 576.000000 576.000000"
 preserveAspectRatio="xMidYMid meet">
<metadata>
Created by potrace 1.14, written by Peter Selinger 2001-2017
</metadata>
<g transform="translate(0.000000,576.000000) scale(0.100000,-0.100000)"
fill="#000000" stroke="none">
<path d="M2868 5685 c-3 -3 -61 -7 -129 -10 -68 -3 -133 -7 -144 -9 -11 -2
-49 -7 -85 -11 -36 -4 -74 -9 -85 -12 -11 -2 -29 -6 -40 -8 -118 -20 -119 -20
-195 -40 -122 -31 -309 -93 -327 -107 -7 -6 -13 -8 -13 -5 0 9 -260 -112 -330
-153 -8 -5 -52 -32 -98 -60 -46 -27 -88 -50 -93 -50 -5 0 -9 -3 -9 -8 0 -4
-18 -18 -40 -32 -22 -14 -40 -28 -40 -32 0 -5 -6 -8 -13 -8 -7 0 -27 -12 -44
-27 -17 -16 -59 -50 -94 -78 -153 -121 -413 -404 -517 -564 -20 -31 -39 -58
-42 -61 -34 -31 -235 -414 -246 -469 -1 -8 -9 -28 -18 -45 -12 -26 -22 -50
-31 -76 -1 -3 -5 -18 -10 -35 -4 -16 -10 -34 -14 -40 -3 -5 -6 -12 -7 -15 0
-3 -3 -12 -7 -20 -8 -20 -64 -248 -71 -285 -3 -16 -7 -41 -10 -55 -3 -14 -7
-43 -10 -65 -4 -22 -8 -51 -11 -65 -24 -129 -25 -556 -1 -725 11 -75 26 -162
31 -185 3 -14 8 -39 10 -57 2 -18 6 -36 9 -41 3 -5 7 -19 10 -33 22 -106 81
-281 143 -429 160 -378 417 -732 727 -1005 38 -33 74 -64 80 -70 6 -5 34 -27
61 -47 28 -21 55 -41 60 -46 67 -55 293 -190 425 -254 134 -65 330 -143 410
-164 8 -2 31 -8 50 -13 115 -32 271 -65 365 -77 22 -3 51 -7 65 -10 158 -27
594 -21 760 11 14 3 41 8 60 11 72 11 119 21 215 45 103 26 267 81 375 126 86
35 291 133 300 143 3 3 28 19 55 34 53 30 186 117 195 126 3 3 21 17 40 30
167 115 443 386 580 572 22 29 43 58 48 63 22 26 124 190 168 270 45 82 58
109 109 215 47 100 122 314 152 435 8 33 17 69 20 80 9 36 24 109 28 135 2 14
6 41 10 60 20 110 28 233 28 435 0 171 -7 314 -18 355 -2 8 -7 38 -10 66 -3
28 -7 59 -10 70 -49 233 -72 322 -87 339 -4 5 -8 18 -8 28 0 27 -94 263 -148
372 -40 80 -143 263 -164 290 -20 26 -79 111 -84 123 -4 7 -15 23 -25 35 -10
12 -52 63 -92 112 -113 138 -266 288 -407 400 -41 33 -76 63 -78 68 -2 4 -8 7
-14 7 -9 0 -28 14 -85 60 -7 6 -15 10 -18 10 -3 0 -36 20 -73 45 -37 25 -72
45 -79 45 -7 0 -13 3 -13 8 0 4 -28 21 -63 37 -34 17 -63 33 -65 38 -2 4 -7 7
-12 7 -4 0 -46 17 -92 38 -83 39 -119 54 -128 56 -3 1 -11 5 -17 9 -7 5 -13 5
-13 1 0 -3 -6 -2 -12 3 -7 6 -38 18 -68 28 -30 10 -61 22 -67 28 -7 5 -13 7
-13 4 0 -3 -15 -1 -32 4 -62 19 -223 59 -263 65 -22 3 -42 7 -45 9 -6 4 -151
25 -215 31 -22 2 -89 6 -148 8 -60 3 -116 8 -126 11 -10 3 -20 3 -23 0z m232
-936 c8 -1 35 -5 60 -10 25 -4 61 -11 80 -13 19 -3 76 -17 125 -31 50 -14 97
-27 105 -29 57 -15 272 -111 350 -157 36 -21 214 -141 220 -148 3 -3 32 -28
65 -56 222 -185 413 -450 523 -725 44 -112 77 -213 87 -269 3 -19 8 -38 10
-41 3 -4 7 -25 11 -45 3 -21 8 -47 10 -59 18 -87 24 -403 10 -506 -14 -108
-37 -226 -58 -295 -12 -38 -22 -75 -24 -81 -1 -6 -19 -53 -39 -105 -57 -143
-159 -329 -227 -414 -5 -5 -27 -35 -50 -65 -68 -89 -257 -273 -338 -330 -19
-13 -37 -27 -40 -31 -11 -15 -157 -103 -243 -148 -77 -40 -108 -54 -167 -76
-3 -1 -12 -5 -20 -8 -40 -17 -100 -35 -100 -30 0 3 -6 1 -12 -4 -14 -11 -157
-49 -222 -59 -21 -3 -48 -8 -60 -10 -116 -23 -400 -23 -561 1 -82 12 -284 62
-340 85 -16 7 -52 21 -80 32 -181 74 -350 175 -500 298 -45 37 -237 231 -263
265 -12 17 -37 50 -56 75 -148 199 -287 510 -322 720 -2 14 -7 36 -10 50 -3
13 -7 40 -10 60 -2 19 -7 53 -11 75 -9 52 -8 342 1 424 9 84 49 267 79 361
104 323 286 599 555 843 29 26 57 47 62 47 4 0 10 3 12 8 6 13 83 70 168 123
174 108 360 186 550 233 102 24 119 28 225 42 28 3 51 8 53 9 3 3 356 -2 392
-6z"/>
<path d="M1852 2862 c-5 -14 4 -134 13 -180 67 -322 269 -588 560 -734 71 -36
173 -72 236 -83 107 -20 146 -23 259 -20 271 8 510 114 708 315 50 51 132 162
132 179 0 6 4 11 8 11 16 0 104 213 118 288 2 12 6 34 9 50 3 15 9 62 12 105
5 62 3 77 -8 77 -8 0 -470 2 -1028 3 -823 2 -1014 0 -1019 -11z"/>
</g>
</svg>
